<?xml version="1.0" encoding="UTF-8"?>
<!DOCTYPE svg PUBLIC "-//W3C//DTD SVG 1.1//EN" "http://www.w3.org/Graphics/SVG/1.1/DTD/svg11.dtd">
<svg xmlns="http://www.w3.org/2000/svg" version="1.1" width="512px" height="512px" style="shape-rendering:geometricPrecision; text-rendering:geometricPrecision; image-rendering:optimizeQuality; fill-rule:evenodd; clip-rule:evenodd" xmlns:xlink="http://www.w3.org/1999/xlink">
<g><path style="opacity:0.987" fill="#4caf50" d="M 511.5,155.5 C 511.5,160.167 511.5,164.833 511.5,169.5C 508.061,178.761 501.395,184.261 491.5,186C 462.828,186.167 434.161,186.667 405.5,187.5C 393.167,232.833 380.833,278.167 368.5,323.5C 395.534,324.044 422.534,324.877 449.5,326C 463.182,332.364 468.015,342.864 464,357.5C 460.455,365.032 454.622,369.865 446.5,372C 416.161,372.167 385.828,372.667 355.5,373.5C 346.668,406.161 337.835,438.828 329,471.5C 322.943,486.444 312.11,491.61 296.5,487C 284.889,480.941 280.389,471.441 283,458.5C 290.641,429.916 298.474,401.416 306.5,373C 251.501,372.5 196.501,372.333 141.5,372.5C 132.981,406.227 124.148,439.893 115,473.5C 108.283,486.604 97.783,491.104 83.5,487C 74.1961,482.681 69.1961,475.348 68.5,465C 76.1983,434.075 84.1983,403.241 92.5,372.5C 67.8311,372.667 43.1644,372.5 18.5,372C 9.16343,369.822 2.8301,364.322 -0.5,355.5C -0.5,350.833 -0.5,346.167 -0.5,341.5C 2.9386,332.239 9.60526,326.739 19.5,325C 48.1725,324.833 76.8391,324.333 105.5,323.5C 117.833,278.167 130.167,232.833 142.5,187.5C 115.466,186.956 88.4659,186.123 61.5,185C 46.2173,177.155 42.0507,165.321 49,149.5C 52.9159,143.597 58.4159,140.097 65.5,139C 95.5056,138.833 125.506,138.333 155.5,137.5C 164.332,104.839 173.165,72.1723 182,39.5C 188.057,24.5565 198.89,19.3898 214.5,24C 226.105,30.0466 230.605,39.5466 228,52.5C 220.359,81.0845 212.526,109.584 204.5,138C 259.499,138.5 314.499,138.667 369.5,138.5C 377.86,104.729 386.693,71.0626 396,37.5C 402.717,24.3957 413.217,19.8957 427.5,24C 436.57,28.2502 441.57,35.4168 442.5,45.5C 434.904,76.6193 426.904,107.619 418.5,138.5C 443.169,138.333 467.836,138.5 492.5,139C 501.837,141.178 508.17,146.678 511.5,155.5 Z M 191.5,186.5 C 246.167,186.5 300.833,186.5 355.5,186.5C 343.5,232.5 331.5,278.5 319.5,324.5C 264.833,324.5 210.167,324.5 155.5,324.5C 167.5,278.5 179.5,232.5 191.5,186.5 Z"/></g>
</svg>
