<?xml version="1.0" encoding="UTF-8"?>
<svg width="228px" height="52px" viewBox="0 0 228 52" version="1.1" xmlns="http://www.w3.org/2000/svg" xmlns:xlink="http://www.w3.org/1999/xlink">
    <title>Logo/Type/Dark</title>
    <g id="Logo/Type/Dark" stroke="none" stroke-width="1" fill="none" fill-rule="evenodd">
        <g id="econnext_logo-S" fill-rule="nonzero">
            <g id="Group" fill="#C65351">
                <path d="M45.1529409,25.9624012 L35.5532191,20.3923945 C35.5987316,20.2514967 35.6249012,20.1049176 35.6249012,19.9526571 C35.6249012,19.8003966 35.5987316,19.6538175 35.5532191,19.514056 L45.1552166,13.9474581 L45.1529409,25.9624012 L45.1529409,25.9624012 Z M45.1506653,39.0499853 L35.5725619,33.4913413 C35.6613112,33.2050007 35.6670003,32.8936621 35.5702862,32.5982313 L45.1540787,27.0418598 L45.1506653,39.0499853 L45.1506653,39.0499853 Z M34.4916402,45.6017312 L34.4939159,34.5412569 L34.6782414,34.4344473 C34.7556127,34.4060405 34.8329839,34.3742248 34.9080795,34.3310465 C35.0468926,34.2503712 35.1618116,34.1458341 35.2630769,34.0322069 L44.8502829,39.595396 L34.4916402,45.6017312 L34.4916402,45.6017312 Z M24.6472887,40.2510251 L33.8647057,34.9071365 L33.8624301,45.5983224 L24.6472887,40.2510251 L24.6472887,40.2510251 Z M23.2011294,52.1489321 L23.2022672,41.0100549 C23.3422181,40.9793756 23.4798934,40.9271071 23.6084662,40.8521131 L24.0271811,40.6100871 L33.5586342,46.1414605 L23.2011294,52.1489321 L23.2011294,52.1489321 Z M12.21669,46.139188 L21.7481432,40.6134959 L22.161169,40.8532494 C22.2920174,40.9293796 22.4319683,40.9793756 22.5753327,41.0134638 L22.573057,52.1500683 L12.21669,46.139188 L12.21669,46.139188 Z M11.9083429,34.9025915 L21.1280355,40.2532976 L11.9072051,45.5983224 L11.9083429,34.9025915 L11.9083429,34.9025915 Z M0.930730412,39.5885783 L10.5327279,34.0219804 C10.6305798,34.1310626 10.744361,34.2265094 10.8752094,34.3026397 L11.2882352,34.5435294 L11.2859596,45.5983224 L0.930730412,39.5885783 L0.930730412,39.5885783 Z M0.622383295,27.0327697 L10.1515608,32.5630068 L10.1515608,33.0425137 C10.1515608,33.1947742 10.1765927,33.3413533 10.2209674,33.4822511 L0.620107671,39.0477127 L0.622383295,27.0327697 L0.622383295,27.0327697 Z M0.625796732,13.9395042 L10.2255186,19.5095109 C10.1800061,19.6504087 10.1549742,19.7969878 10.1549742,19.948112 L10.1549742,20.4276189 L0.62465892,25.953311 L0.625796732,13.9395042 L0.625796732,13.9395042 Z M10.1526986,31.8448828 L0.934143849,26.4953129 L10.1549742,21.1480155 L10.1526986,31.8448828 L10.1526986,31.8448828 Z M11.2939243,7.39457591 L11.2927865,18.4493689 L10.8786228,18.6902586 C10.7477744,18.7652526 10.6339932,18.8618357 10.5350035,18.9709179 L0.935281661,13.4009112 L11.2939243,7.39457591 L11.2939243,7.39457591 Z M21.1337245,12.7441458 L11.9128942,18.0903068 L11.9151698,7.39457591 L21.1337245,12.7441458 L21.1337245,12.7441458 Z M22.5832973,0.848511323 L22.5810217,11.9862522 C22.4387952,12.0169315 22.2977065,12.0692001 22.1679959,12.1453303 L21.75497,12.3850837 L12.2257925,6.85598285 L22.5832973,0.848511323 L22.5832973,0.848511323 Z M33.559772,6.85825539 L24.0283189,12.3839475 L23.615293,12.144194 C23.4844446,12.0680638 23.3456315,12.0169315 23.2022672,11.9851159 L23.2045428,0.848511323 L33.559772,6.85825539 L33.559772,6.85825539 Z M33.8681191,18.0948519 L24.6484266,12.7452821 L33.8703948,7.39798472 L33.8681191,18.0948519 L33.8681191,18.0948519 Z M35.2562501,32.0619108 C35.0468926,31.83352 34.7760933,31.6846684 34.4848134,31.6221734 L34.487089,21.4525365 L34.9001148,21.2127831 C35.0309632,21.1366528 35.1436067,21.0412059 35.2425963,20.9321238 L44.843456,26.5021305 L35.2562501,32.0619108 L35.2562501,32.0619108 Z M13.3579157,32.3834758 L21.8050338,27.485006 C22.0132534,27.7156693 22.2851905,27.8667935 22.5776083,27.931561 L22.5753327,37.734182 L13.3579157,32.3834758 L13.3579157,32.3834758 Z M22.5776083,24.9999786 L22.3079468,25.1556479 C22.257883,25.1783733 22.2066815,25.1954174 22.1588934,25.2238242 C22.0234937,25.302227 21.9108503,25.4033552 21.8107228,25.5147099 L13.3590535,20.6105588 L22.5798839,15.2632614 L22.5776083,24.9999786 L22.5776083,24.9999786 Z M31.2830097,19.9526571 L23.1988538,24.6397802 L23.1999916,15.2632614 L31.2830097,19.9526571 L31.2830097,19.9526571 Z M33.8647057,31.6244459 C33.7213414,31.6551253 33.5802526,31.7017124 33.4459908,31.7801152 C33.4175455,31.7982956 33.3925136,31.8198848 33.3652061,31.8392014 L33.038654,32.0289589 L24.6472887,27.1588959 L33.8681191,21.8127348 L33.8647057,31.6244459 L33.8647057,31.6244459 Z M23.6221199,27.7747555 C23.6790105,27.7418036 23.7279365,27.702034 23.7780002,27.6611282 L24.0249054,27.5179579 L32.4174085,32.3880209 L23.1965781,37.734182 L23.1988538,27.931561 C23.3433559,27.8997454 23.4867203,27.852022 23.6221199,27.7747555 L23.6221199,27.7747555 Z M13.0495686,21.1491518 L21.5001001,26.053303 C21.4090751,26.3385073 21.4022482,26.6498459 21.4966866,26.946413 L13.0484308,31.8448828 L13.0495686,21.1491518 L13.0495686,21.1491518 Z M44.8457316,13.4077288 L35.2448719,18.9743267 C35.1458823,18.8652445 35.0309632,18.7697977 34.9012526,18.6936674 L34.4882268,18.4550502 L34.4905024,7.399121 L44.8457316,13.4077288 L44.8457316,13.4077288 Z M45.770773,39.5158569 L45.7730486,26.5044031 L45.7730486,26.5044031 L45.776462,13.4202278 C45.776462,13.416819 45.776462,13.4134102 45.776462,13.4088651 C45.776462,13.2986467 45.7172958,13.1952459 45.6205818,13.1395685 L34.3437246,6.59691277 C34.3403112,6.59464023 34.3368978,6.59350395 34.3334843,6.59123141 L23.057765,0.0474393675 C23.0554894,0.0463030953 23.052076,0.0440305507 23.0486625,0.0417580062 C22.9530863,-0.0139193354 22.8347538,-0.0139193354 22.7380398,0.0417580062 L0.160431526,13.1293421 C0.0648552977,13.1850194 0.0056890612,13.2872839 0.0056890612,13.3986386 L0.00341343672,26.4771325 L0.00341343672,26.4941766 L0,39.587442 C0,39.6987967 0.0591662365,39.8021975 0.155880277,39.8578748 L0.155880277,39.8578748 L0.155880277,39.8578748 L11.4327374,46.4028032 C11.435013,46.4050757 11.4395643,46.406212 11.4418399,46.4073483 L22.7289373,52.9590942 C22.7767254,52.9852285 22.8302026,53 22.8836798,53 L22.8916445,53 C22.9451216,53 22.997461,52.9852285 23.0463869,52.9590942 L34.3346222,46.4118933 C34.3403112,46.4096208 34.3448625,46.406212 34.3505515,46.4028032 L45.6262708,39.866965 C45.721847,39.8101514 45.7810133,39.7067506 45.7810133,39.5965322 C45.7810133,39.5681254 45.7775998,39.5419912 45.770773,39.5158569 L45.770773,39.5158569 Z" id="Fill-1"></path>
            </g>
            <g id="Ebene_2" transform="translate(64.000000, 14.000000)" fill="#354B45">
                <path d="M15.7870101,4.98511488 C14.9969218,4.44427156 14.0842335,4.04947876 13.0750545,3.81556973 C12.0885792,3.58622478 11.0635077,3.4709818 10.0270842,3.4709818 C6.90192146,3.4709818 4.42721936,4.25029822 2.67449456,5.78496966 C0.900201269,7.33903843 0,9.67698771 0,12.7349204 C0,15.5760593 0.794629115,17.8489705 2.36231884,19.501167 C3.93681967,21.1556455 6.42287362,21.997718 9.75009924,21.997718 C11.317789,21.997718 12.8219084,21.8083087 14.2193204,21.4329132 C15.6269491,21.0563767 16.7655391,20.5817126 17.6010349,20.023754 L18.0221883,19.7407811 L15.7836046,16.0301852 L15.3283956,16.3211452 C14.9219996,16.5835797 14.3055944,16.8482963 13.4996135,17.1084487 C12.7015788,17.3674602 11.7809442,17.4986775 10.7615486,17.4986775 C9.16774962,17.4986775 8.02007814,17.1883201 7.34804895,16.5755926 C6.78726783,16.0632747 6.43422546,15.3181889 6.29573296,14.3563093 L17.9676995,14.3563093 L18.0619198,13.9455422 C18.1981419,13.353353 18.3003085,12.7817022 18.3684196,12.2374358 C18.4365307,11.6863233 18.4717214,11.1637363 18.4717214,10.683367 C18.4717214,9.32441263 18.2242512,8.16285462 17.737257,7.22950054 C17.2491277,6.29500545 16.5941263,5.53965043 15.7870101,4.98511488 M9.96578429,7.97116332 C10.9658818,7.97116332 11.6662906,8.22332867 12.1010662,8.74249261 C12.4711364,9.18178518 12.6561714,9.81162803 12.6516307,10.6137648 L6.45465878,10.6137648 C6.62039571,9.88008921 6.92121959,9.28790001 7.37415819,8.81665889 C7.90996525,8.25527722 8.78065172,7.97116332 9.96578429,7.97116332" id="Shape"></path>
                <path d="M35.7344713,16.2389918 C35.2940197,16.485452 34.7820515,16.6976817 34.212189,16.8745397 C33.6604893,17.0445516 32.9668916,17.1335512 32.1518292,17.1335512 C31.4355278,17.1335512 30.8055004,17.0183082 30.2787748,16.7935273 C29.7645363,16.5755926 29.3456532,16.2732223 29.0323423,15.8989679 C28.7076796,15.5144443 28.4636149,15.0534723 28.3001483,14.5286033 C28.132141,13.9854779 28.0470022,13.3853016 28.0470022,12.7360614 C28.0470022,11.1637363 28.371665,10.0227167 29.0107738,9.34609201 C29.6419364,8.67631347 30.6045728,8.33514859 31.873709,8.33514859 C32.5968215,8.33514859 33.2438766,8.39790467 33.7978466,8.52227582 C34.3597629,8.64778798 34.938707,8.8292101 35.5187863,9.06083709 L36.0273489,9.26393859 L37.6007145,4.77060318 L37.1489111,4.57548882 C36.4087709,4.25600332 35.5721399,3.98900472 34.6605868,3.78362118 C33.7433578,3.57823764 32.5253049,3.47326383 31.0416188,3.47326383 C28.0345152,3.47326383 25.6994408,4.28795187 24.0988307,5.89450755 C22.4993558,7.50106322 21.6888341,9.80364089 21.6888341,12.7383434 C21.6888341,14.0813236 21.8477599,15.3318811 22.162206,16.4535034 C22.4857336,17.6104974 23.0249462,18.6100306 23.7628161,19.4270007 C24.5029564,20.2473938 25.4701335,20.8886469 26.6382383,21.3359266 C27.7893153,21.7763601 29.2037552,22 30.8429615,22 C32.0621496,22 33.2654451,21.8676417 34.4221981,21.6063482 C35.5948436,21.3427727 36.6131041,20.9468389 37.449735,20.43338 L37.81867,20.2063171 L36.2714135,15.9446087 L35.7344713,16.2389918 Z" id="Path"></path>
                <path d="M57.1792407,6.02116073 C56.3619079,5.20989575 55.3243494,4.57320678 54.097215,4.12935014 C52.8837028,3.69233961 51.438613,3.46984078 49.8050826,3.46984078 C46.7253271,3.46984078 44.2892213,4.27882371 42.5592002,5.87511021 C40.8178273,7.48280691 39.9346538,9.78994865 39.9346538,12.7337794 C39.9346538,14.0904517 40.1378518,15.3512785 40.5385719,16.4808879 C40.9461031,17.6355998 41.5749953,18.632851 42.4082207,19.446398 C43.2380405,20.258804 44.2801398,20.894352 45.506139,21.3359266 C46.7207864,21.7729371 48.1670114,21.9954359 49.8028122,21.9954359 C52.8814324,21.9954359 55.3107271,21.1830299 57.0248557,19.5878844 C58.7526064,17.9801877 59.630104,15.673046 59.630104,12.7337794 C59.630104,11.378248 59.4257708,10.1162803 59.0250507,8.98210674 C58.6220602,7.83195892 57.9999791,6.83470774 57.1792407,6.02116073 M52.4023846,16.2686583 C51.8427386,16.9578341 50.9936207,17.295576 49.8050826,17.295576 C49.17392,17.295576 48.6347074,17.184897 48.195391,16.9703854 C47.7606154,16.7558737 47.4166545,16.4614906 47.1510213,16.0701208 C46.8717659,15.6616358 46.6560809,15.1721384 46.5141828,14.6187438 C46.367744,14.047093 46.2950922,13.4138271 46.2950922,12.7349204 C46.2950922,11.0701727 46.607268,9.87666615 47.2282139,9.18634926 C47.8389431,8.50287848 48.6823851,8.16970074 49.8050826,8.16970074 C51.0742188,8.16970074 51.9403645,8.55080131 52.447792,9.33468181 C52.9949509,10.1801774 53.2730711,11.3246201 53.2730711,12.7349204 C53.2730711,14.3642965 52.9801935,15.555521 52.4023846,16.2686583" id="Shape"></path>
                <path d="M80.4857127,5.03988382 C79.8942816,4.47393807 79.1723043,4.06545304 78.3254567,3.82127483 C77.5160702,3.58850682 76.5908948,3.46984078 75.570364,3.46984078 C73.9073188,3.46984078 72.5189882,3.75737773 71.4451037,4.3244645 C70.6595561,4.73865463 69.9795806,5.21331881 69.4176643,5.73818785 L68.9238591,3.93423578 L63.919966,3.93423578 L63.919966,21.5310409 L70.1203435,21.5310409 L70.1203435,10.3946891 C70.37576,9.8218972 70.7764801,9.34723303 71.3383964,8.95015819 C71.9196108,8.54167315 72.6506696,8.33400757 73.5111394,8.33400757 C74.4419907,8.33400757 75.0958569,8.56677558 75.4500345,9.02318344 C75.8359972,9.52180903 76.0301137,10.391266 76.0301137,11.609875 L76.0301137,21.5321819 L82.2316264,21.5321819 L82.2316264,10.7164566 C82.2316264,9.39173279 82.0908635,8.25527722 81.8127433,7.33675639 C81.5244065,6.38172294 81.0771438,5.60925263 80.4857127,5.03988382" id="Path"></path>
                <path d="M103.835322,5.03988382 C103.247296,4.47393807 102.521913,4.06545304 101.678471,3.82127483 C100.869085,3.58850682 99.9405038,3.46984078 98.919973,3.46984078 C97.2557926,3.46984078 95.8697324,3.75737773 94.7958479,4.3244645 C94.0103002,4.73865463 93.3314599,5.21331881 92.7684084,5.73818785 L92.2768736,3.93423578 L87.2707102,3.93423578 L87.2707102,21.5310409 L93.4722228,21.5310409 L93.4722228,10.3946891 C93.7276393,9.8218972 94.126089,9.34723303 94.6891405,8.95015819 C95.270355,8.54167315 96.0002786,8.33400757 96.8618836,8.33400757 C97.79387,8.33400757 98.4466011,8.56677558 98.8019138,9.02318344 C99.1856061,9.52180903 99.3797227,10.391266 99.3797227,11.609875 L99.3797227,21.5321819 L105.583506,21.5321819 L105.583506,10.7164566 C105.583506,9.39173279 105.442743,8.25527722 105.163487,7.33675639 C104.874015,6.38172294 104.426753,5.60925263 103.835322,5.03988382" id="Path"></path>
                <path d="M124.244803,4.98511488 C123.454714,4.44427156 122.542026,4.04947876 121.532847,3.81556973 C120.547507,3.58622478 119.5213,3.4709818 118.484877,3.4709818 C115.357444,3.4709818 112.886147,4.25029822 111.130017,5.78496966 C109.356859,7.33903843 108.457793,9.67698771 108.457793,12.7349204 C108.457793,15.5760593 109.251287,17.8489705 110.821247,19.501167 C112.394612,21.1556455 114.880666,21.997718 118.207892,21.997718 C119.775582,21.997718 121.279701,21.8083087 122.678248,21.4329132 C124.087012,21.0563767 125.224467,20.5817126 126.059963,20.023754 L126.478846,19.7407811 L124.241397,16.0301852 L123.786188,16.3211452 C123.379792,16.5835797 122.764522,16.8482963 121.956271,17.1084487 C121.161642,17.3674602 120.238737,17.4986775 119.219341,17.4986775 C117.626678,17.4986775 116.477871,17.1883201 115.806977,16.5755926 C115.243925,16.0632747 114.890883,15.3181889 114.752391,14.3563093 L126.425492,14.3563093 L126.518577,13.9455422 C126.655935,13.353353 126.758101,12.7817022 126.825077,12.2374358 C126.894323,11.6863233 126.930649,11.1637363 126.930649,10.683367 C126.930649,9.32441263 126.682044,8.16285462 126.19505,7.22950054 C125.708056,6.29500545 125.051919,5.53965043 124.244803,4.98511488 M118.423577,7.97116332 C119.42481,7.97116332 120.124083,8.22332867 120.558859,8.74249261 C120.930064,9.18178518 121.111694,9.81162803 121.108335,10.6137648 L114.912452,10.6137648 C115.077053,9.88008921 115.379012,9.28790001 115.831951,8.81665889 C116.367758,8.25527722 117.23958,7.97116332 118.423577,7.97116332" id="Shape"></path>
                <polygon id="Path" points="134.153828 12.3389866 128.723106 3.5816607 135.692003 3.5816607 138.393742 8.59986515 141.155646 3.5816607 148.141571 3.5816607 142.567815 12.3389866 148.360661 21.4591567 141.391764 21.4591567 138.393742 16.0313262 135.408207 21.4591567 128.424552 21.4591567"></polygon>
                <path d="M160.031493,16.8996421 C160.859042,16.8996421 161.847788,16.6942586 163,16.2846325 L163,20.782532 C162.171315,21.1396712 161.384633,21.3929775 160.636546,21.5458742 C159.887324,21.6999118 159.009827,21.7752191 158.006324,21.7752191 C155.944829,21.7752191 154.460007,21.2663244 153.548454,20.2530989 C152.636901,19.2353094 152.182827,17.6766765 152.182827,15.5749183 L152.182827,8.20507235 L150.031653,8.20507235 L150.031653,3.74824957 L152.761771,3.75509569 L154.348759,1.77635684e-15 L158.367312,1.77635684e-15 L158.367312,3.5816607 L162.729826,3.5816607 L162.729826,8.20507235 L158.367312,8.20507235 L158.367312,15.1618692 C158.368447,16.3188631 158.922417,16.8996421 160.031493,16.8996421" id="Path"></path>
            </g>
        </g>
    </g>
</svg>