<?xml version="1.0" encoding="UTF-8" standalone="no"?>
<svg
   xmlns:dc="http://purl.org/dc/elements/1.1/"
   xmlns:cc="http://creativecommons.org/ns#"
   xmlns:rdf="http://www.w3.org/1999/02/22-rdf-syntax-ns#"
   xmlns:svg="http://www.w3.org/2000/svg"
   xmlns="http://www.w3.org/2000/svg"
   viewBox="0 0 1160.5468 95.826668"
   height="95.826668"
   width="1160.5468"
   xml:space="preserve"
   id="svg2"
   version="1.1"><metadata
     id="metadata8"><rdf:RDF><cc:Work
         rdf:about=""><dc:format>image/svg+xml</dc:format><dc:type
           rdf:resource="http://purl.org/dc/dcmitype/StillImage" /></cc:Work></rdf:RDF></metadata><defs
     id="defs6" /><g
     transform="matrix(1.3333333,0,0,-1.3333333,0,95.826667)"
     id="g10"><g
       transform="scale(0.1)"
       id="g12"><path
         id="path14"
         style="fill:#8e993a;fill-opacity:1;fill-rule:nonzero;stroke:none"
         d="m 1173.18,504.387 h -28.05 v 204.562 h 28.05 V 504.387" /><path
         id="path16"
         style="fill:#8e993a;fill-opacity:1;fill-rule:nonzero;stroke:none"
         d="M 1220.03,718.715 1388.95,557.832 V 708.949 H 1417 V 495.977 L 1248.09,656.859 V 504.387 h -28.06 v 214.328" /><path
         id="path18"
         style="fill:#8e993a;fill-opacity:1;fill-rule:nonzero;stroke:none"
         d="m 1538.76,557.559 66.85,151.39 h 30.74 l -97.59,-215.418 -97.89,215.418 h 30.74 l 67.15,-151.39" /><path
         id="path20"
         style="fill:#8e993a;fill-opacity:1;fill-rule:nonzero;stroke:none"
         d="m 1662.91,708.949 h 120.87 v -23.336 h -92.81 v -57.238 h 90.12 v -23.336 h -90.12 v -77.324 h 92.81 v -23.328 h -120.87 v 204.562" /><path
         id="path22"
         style="fill:#8e993a;fill-opacity:1;fill-rule:nonzero;stroke:none"
         d="m 1925.83,670.152 c -8.36,12.754 -19.1,19.262 -36.11,19.262 -17.9,0 -37.6,-11.125 -37.6,-29.027 0,-16.008 17.3,-24.418 31.33,-29.305 l 16.12,-5.695 c 31.93,-11.395 55.8,-27.403 55.8,-61.586 0,-37.168 -31.63,-63.758 -71.92,-63.758 -36.41,0 -64.76,24.422 -69.53,57.246 l 28.35,5.426 c -0.3,-22.52 19.4,-38.793 43.57,-38.793 24.17,0 41.48,18.445 41.48,39.879 0,21.976 -19.4,31.472 -38.8,38.797 l -15.51,5.965 c -25.67,10.039 -48.95,23.335 -48.95,51.824 0,33.097 32.23,52.902 66.25,52.902 25.07,0 45.67,-11.121 57.9,-30.926 l -22.38,-12.211" /><path
         id="path24"
         style="fill:#8e993a;fill-opacity:1;fill-rule:nonzero;stroke:none"
         d="m 2054.15,504.387 h -28.06 v 181.226 h -53.41 v 23.336 h 134.89 v -23.336 h -53.42 V 504.387" /><path
         id="path26"
         style="fill:#8e993a;fill-opacity:1;fill-rule:nonzero;stroke:none"
         d="m 2329,606.664 c 0,45.039 -37,82.75 -89.82,82.75 -52.82,0 -89.83,-37.711 -89.83,-82.75 0,-46.66 41.19,-82.742 89.83,-82.742 48.64,0 89.82,36.082 89.82,82.742 z m 28.06,0 c 0,-60.769 -52.82,-106.621 -117.88,-106.621 -65.06,0 -117.88,45.852 -117.88,106.621 0,58.606 53.42,106.625 117.88,106.625 64.46,0 117.88,-48.019 117.88,-106.625" /><path
         id="path28"
         style="fill:#8e993a;fill-opacity:1;fill-rule:nonzero;stroke:none"
         d="m 2419.74,612.094 h 8.95 c 28.65,0 59.69,4.883 59.69,37.437 0,32.016 -33.43,36.629 -61.18,36.629 h -7.46 z m 111.91,-107.707 h -34.02 l -66.25,86.547 h -11.64 v -86.547 h -28.06 v 204.562 h 34.02 c 20,0 41.49,-0.273 59.4,-9.496 18.8,-10.039 29.54,-29.301 29.54,-48.832 0,-29.305 -21.49,-53.723 -54.01,-57.246 l 71.02,-88.988" /><path
         id="path30"
         style="fill:#334005;fill-opacity:1;fill-rule:nonzero;stroke:none"
         d="m 1009.82,666.422 c 0,-27.051 -21.929,-48.984 -48.98,-48.984 -27.051,0 -48.985,21.933 -48.985,48.984 0,27.051 21.934,48.984 48.985,48.984 27.051,0 48.98,-21.933 48.98,-48.984" /><path
         id="path32"
         style="fill:#8a9789;fill-opacity:1;fill-rule:nonzero;stroke:none"
         d="m 1009.45,377.383 c 0,-27.051 -21.93,-48.985 -48.981,-48.985 -27.051,0 -48.985,21.934 -48.985,48.985 0,27.051 21.934,48.984 48.985,48.984 27.051,0 48.981,-21.933 48.981,-48.984" /><path
         id="path34"
         style="fill:#8e993a;fill-opacity:1;fill-rule:nonzero;stroke:none"
         d="m 1009.45,516.855 c 0,-27.05 -21.93,-48.984 -48.981,-48.984 -27.051,0 -48.985,21.934 -48.985,48.984 0,27.051 21.934,48.985 48.985,48.985 27.051,0 48.981,-21.934 48.981,-48.985" /><path
         id="path36"
         style="fill:#8a9789;fill-opacity:1;fill-rule:nonzero;stroke:none"
         d="m 1209.84,386.199 v 36.895 h 11.15 V 332.18 h -11.15 v 44.617 h -51.19 V 332.18 h -11.15 v 90.914 h 11.15 v -36.895 h 51.19" /><path
         id="path38"
         style="fill:#8a9789;fill-opacity:1;fill-rule:nonzero;stroke:none"
         d="m 1257.06,357.258 c 0,-9.524 1.19,-17.727 14.06,-17.727 12.87,0 14.07,8.203 14.07,17.727 v 31.59 h 10.6 v -32.676 c 0,-15.07 -6.23,-25.567 -24.67,-25.567 -18.43,0 -24.67,10.497 -24.67,25.567 v 32.676 h 10.61 v -31.59" /><path
         id="path40"
         style="fill:#8a9789;fill-opacity:1;fill-rule:nonzero;stroke:none"
         d="m 1331.34,382.703 h 0.27 c 3.31,4.699 8.61,7.719 14.98,7.719 7.3,0 13.93,-3.496 17.25,-9.406 3.71,6.269 11.14,9.406 18.7,9.406 15.92,0 19.89,-11.82 19.89,-23.762 v -34.48 h -10.6 v 32.918 c 0,7.351 -0.53,16.394 -11.41,16.394 -12.21,0 -13.54,-10.73 -13.54,-19.285 V 332.18 h -10.6 v 32.195 c 0,6.992 -0.94,17.117 -11.14,17.117 -12.47,0 -13.8,-11.453 -13.8,-20.019 V 332.18 h -10.61 v 56.668 h 10.61 v -6.145" /><path
         id="path42"
         style="fill:#8a9789;fill-opacity:1;fill-rule:nonzero;stroke:none"
         d="m 1433.73,361.113 c 0,-11.093 7.16,-21.582 20.43,-21.582 13.66,0 20.82,10.008 20.82,21.465 0,11.336 -7.82,20.496 -20.96,20.496 -12.33,0 -20.29,-9.765 -20.29,-20.379 z m 51.34,-28.933 h -10.62 v 7.84 h -0.26 c -5.44,-6.27 -12.74,-9.415 -21.49,-9.415 -18.31,0 -29.84,14.114 -29.84,29.786 0,16.164 11.27,30.031 29.97,30.031 8.49,0 16.18,-3.625 21.36,-9.652 h 0.26 v 8.078 h 10.62 V 332.18" /><path
         id="path44"
         style="fill:#8a9789;fill-opacity:1;fill-rule:nonzero;stroke:none"
         d="m 1520.88,381.973 h 0.26 c 4.38,5.429 10.08,8.449 17.78,8.449 17.24,0 21.22,-11.34 21.22,-24.602 v -33.64 h -10.62 v 31.953 c 0,9.156 -0.79,17.359 -13.12,17.359 -14.59,0 -15.52,-12.293 -15.52,-22.429 V 332.18 h -10.62 v 56.668 h 10.62 v -6.875" /><path
         id="path46"
         style="fill:#8a9789;fill-opacity:1;fill-rule:nonzero;stroke:none"
         d="m 1643.7,332.18 h -11.14 v 90.914 h 11.14 V 332.18" /><path
         id="path48"
         style="fill:#8a9789;fill-opacity:1;fill-rule:nonzero;stroke:none"
         d="m 1680.18,382.703 h 0.26 c 3.32,4.699 8.62,7.719 14.98,7.719 7.3,0 13.94,-3.496 17.25,-9.406 3.71,6.269 11.15,9.406 18.71,9.406 15.91,0 19.89,-11.82 19.89,-23.762 v -34.48 h -10.62 v 32.918 c 0,7.351 -0.52,16.394 -11.4,16.394 -12.21,0 -13.53,-10.73 -13.53,-19.285 V 332.18 h -10.61 v 32.195 c 0,6.992 -0.93,17.117 -11.14,17.117 -12.48,0 -13.79,-11.453 -13.79,-20.019 V 332.18 h -10.62 v 56.668 h 10.62 v -6.145" /><path
         id="path50"
         style="fill:#8a9789;fill-opacity:1;fill-rule:nonzero;stroke:none"
         d="m 1786.55,361.113 c 0,-11.093 7.16,-21.582 20.43,-21.582 13.65,0 20.82,10.008 20.82,21.465 0,11.336 -7.83,20.496 -20.95,20.496 -12.35,0 -20.3,-9.765 -20.3,-20.379 z m 0.53,19.657 h 0.26 c 5.18,6.269 12.86,9.652 21.5,9.652 18.3,0 29.84,-14.359 29.84,-30.031 0,-16.153 -11.28,-29.786 -29.98,-29.786 -8.5,0 -16.31,3.379 -21.36,9.532 h -0.26 v -39.793 h -10.61 v 88.504 h 10.61 v -8.078" /><path
         id="path52"
         style="fill:#8a9789;fill-opacity:1;fill-rule:nonzero;stroke:none"
         d="m 1864.68,361.113 c 0,-11.093 7.16,-21.582 20.43,-21.582 13.65,0 20.82,10.008 20.82,21.465 0,11.336 -7.83,20.496 -20.96,20.496 -12.34,0 -20.29,-9.765 -20.29,-20.379 z m 51.33,-28.933 h -10.61 v 7.84 h -0.27 c -5.43,-6.27 -12.74,-9.415 -21.49,-9.415 -18.3,0 -29.84,14.114 -29.84,29.786 0,16.164 11.27,30.031 29.98,30.031 8.48,0 16.17,-3.625 21.35,-9.652 h 0.27 v 8.078 h 10.61 V 332.18" /><path
         id="path54"
         style="fill:#8a9789;fill-opacity:1;fill-rule:nonzero;stroke:none"
         d="m 1987.49,371.973 h -0.26 c -4.92,5.664 -11.01,9.519 -19.37,9.519 -12.86,0 -22.01,-9.648 -22.01,-20.976 0,-11.219 8.49,-20.985 21.48,-20.985 8.89,0 15.12,3.621 20.3,9.766 h 0.26 v -12.902 c -6.1,-3.739 -12.33,-5.79 -19.76,-5.79 -18.84,0 -33.16,12.782 -33.16,29.911 0,16.875 14.98,29.906 33.29,29.906 6.77,0 13.66,-2.055 19.23,-5.676 v -12.773" /><path
         id="path56"
         style="fill:#8a9789;fill-opacity:1;fill-rule:nonzero;stroke:none"
         d="m 2021.04,332.18 h -10.6 v 47.75 h -6.5 v 8.918 h 6.5 v 20.379 h 10.6 v -20.379 h 11.16 v -8.918 h -11.16 v -47.75" /><path
         id="path58"
         style="fill:#8a9789;fill-opacity:1;fill-rule:nonzero;stroke:none"
         d="m 2129.68,392.227 v -24.473 h 26.93 v -9.414 h -26.93 v -24.473 h -10.34 v 24.473 h -26.93 v 9.414 h 26.93 v 24.473 h 10.34" /><path
         id="path60"
         style="fill:#8a9789;fill-opacity:1;fill-rule:nonzero;stroke:none"
         d="m 2238.57,381.379 h 7.44 c 12.33,0 22.81,3.367 22.81,16.394 0,14.832 -13.14,15.918 -26.13,15.918 h -4.12 z m 0,-49.199 h -11.14 v 90.914 h 16.45 c 8.62,0 17.51,-0.242 24.8,-4.824 7.43,-4.696 11.27,-12.657 11.27,-20.743 0,-7.351 -3.31,-14.824 -9.54,-19.531 -6.77,-5.066 -15.38,-6.023 -23.74,-6.023 h -8.1 V 332.18" /><path
         id="path62"
         style="fill:#8a9789;fill-opacity:1;fill-rule:nonzero;stroke:none"
         d="m 2309.79,382.703 h 0.28 c 3.71,4.453 6.89,7.719 13.79,7.719 3.58,0 6.5,-1.086 9.55,-2.66 l -5.04,-8.797 c -2.13,1.328 -3.58,2.527 -6.37,2.527 -11.67,0 -12.21,-13.621 -12.21,-20.976 V 332.18 h -10.6 v 56.668 h 10.6 v -6.145" /><path
         id="path64"
         style="fill:#8a9789;fill-opacity:1;fill-rule:nonzero;stroke:none"
         d="m 2354.77,360.516 c 0,-11.582 9.01,-20.985 22.14,-20.985 13.14,0 22.16,9.403 22.16,20.985 0,11.457 -9.02,20.976 -22.16,20.976 -13.13,0 -22.14,-9.519 -22.14,-20.976 z m -10.62,-0.125 c 0,16.64 14.45,30.031 32.76,30.031 18.31,0 32.77,-13.391 32.77,-30.031 0,-16.641 -14.59,-29.786 -32.77,-29.786 -18.17,0 -32.76,13.145 -32.76,29.786" /><path
         id="path66"
         style="fill:#8a9789;fill-opacity:1;fill-rule:nonzero;stroke:none"
         d="m 2441.38,332.18 h -10.61 v 47.75 h -5.84 v 8.918 h 5.84 v 22.547 c 0,4.707 0,10.617 2.77,14.718 3.46,5.059 9.69,7.11 16.06,7.11 2.52,0 5.04,-0.481 7.56,-1.203 v -9.762 c -2.39,0.719 -4.51,1.316 -7.17,1.316 -8.61,0 -8.61,-5.547 -8.61,-15.547 v -19.179 h 15.78 v -8.918 h -15.78 v -47.75" /><path
         id="path68"
         style="fill:#8a9789;fill-opacity:1;fill-rule:nonzero;stroke:none"
         d="m 2484.35,332.18 h -10.61 v 56.668 h 10.61 z m 2.26,78.015 c 0,-3.855 -3.46,-6.875 -7.57,-6.875 -4.11,0 -7.56,3.02 -7.56,6.875 0,3.739 3.45,6.875 7.56,6.875 4.11,0 7.57,-3.136 7.57,-6.875" /><path
         id="path70"
         style="fill:#8a9789;fill-opacity:1;fill-rule:nonzero;stroke:none"
         d="m 2523.21,332.18 h -10.61 v 47.75 h -6.5 v 8.918 h 6.5 v 20.379 h 10.61 v -20.379 h 11.14 v -8.918 h -11.14 v -47.75" /><path
         id="path72"
         style="fill:#334005;fill-opacity:1;fill-rule:nonzero;stroke:none"
         d="m 256.074,557.281 v 156.231 h 53.145 V 326.016 H 256.074 V 512.047 H 53.125 V 326.016 H 0 V 713.512 H 53.125 V 557.281 h 202.949" /><path
         id="path74"
         style="fill:#334005;fill-opacity:1;fill-rule:nonzero;stroke:none"
         d="m 451.672,326.016 h -53.149 v 387.496 h 53.149 V 326.016" /><path
         id="path76"
         style="fill:#334005;fill-opacity:1;fill-rule:nonzero;stroke:none"
         d="m 598.66,531.578 h 16.945 c 54.258,0 113.067,9.258 113.067,70.938 0,60.625 -63.32,67.832 -115.906,67.832 H 598.66 Z m 0,-205.562 h -53.14 v 387.496 h 61.035 c 131.14,0 171.851,-41.094 171.851,-112.032 0,-81.718 -68.386,-113.066 -149.246,-113.066 h -30.5 V 326.016" /><path
         id="path78"
         style="fill:#231f20;fill-opacity:1;fill-rule:nonzero;stroke:none"
         d="m 4171.19,399.43 h -28.06 v 204.558 h 28.06 V 399.43" /><path
         id="path80"
         style="fill:#231f20;fill-opacity:1;fill-rule:nonzero;stroke:none"
         d="m 4218.04,613.754 168.91,-160.879 v 151.113 h 28.06 V 391.02 L 4246.09,551.898 V 399.43 h -28.05 v 214.324" /><path
         id="path82"
         style="fill:#231f20;fill-opacity:1;fill-rule:nonzero;stroke:none"
         d="m 4536.77,452.602 66.84,151.386 h 30.75 l -97.59,-215.41 -97.89,215.41 h 30.74 l 67.15,-151.386" /><path
         id="path84"
         style="fill:#231f20;fill-opacity:1;fill-rule:nonzero;stroke:none"
         d="m 4660.92,603.988 h 120.87 V 580.66 h -92.82 v -57.238 h 90.13 v -23.34 h -90.13 v -77.324 h 92.82 V 399.43 h -120.87 v 204.558" /><path
         id="path86"
         style="fill:#231f20;fill-opacity:1;fill-rule:nonzero;stroke:none"
         d="m 4923.84,565.199 c -8.36,12.754 -19.1,19.258 -36.12,19.258 -17.9,0 -37.59,-11.121 -37.59,-29.023 0,-16.016 17.3,-24.422 31.32,-29.305 l 16.13,-5.695 c 31.93,-11.395 55.8,-27.403 55.8,-61.59 0,-37.168 -31.63,-63.762 -71.93,-63.762 -36.4,0 -64.75,24.426 -69.53,57.246 l 28.35,5.43 c -0.29,-22.52 19.41,-38.789 43.58,-38.789 24.17,0 41.48,18.437 41.48,39.875 0,21.98 -19.4,31.472 -38.8,38.797 l -15.51,5.968 c -25.67,10.039 -48.95,23.329 -48.95,51.825 0,33.097 32.23,52.902 66.25,52.902 25.07,0 45.66,-11.125 57.9,-30.93 l -22.38,-12.207" /><path
         id="path88"
         style="fill:#231f20;fill-opacity:1;fill-rule:nonzero;stroke:none"
         d="m 5052.16,399.43 h -28.06 v 181.23 h -53.42 v 23.328 h 134.9 V 580.66 h -53.42 V 399.43" /><path
         id="path90"
         style="fill:#231f20;fill-opacity:1;fill-rule:nonzero;stroke:none"
         d="m 5327.01,501.703 c 0,45.039 -37,82.754 -89.82,82.754 -52.83,0 -89.84,-37.715 -89.84,-82.754 0,-46.66 41.19,-82.734 89.84,-82.734 48.64,0 89.82,36.074 89.82,82.734 z m 28.06,0 c 0,-60.762 -52.82,-106.621 -117.88,-106.621 -65.06,0 -117.88,45.859 -117.88,106.621 0,58.613 53.41,106.633 117.88,106.633 64.46,0 117.88,-48.02 117.88,-106.633" /><path
         id="path92"
         style="fill:#231f20;fill-opacity:1;fill-rule:nonzero;stroke:none"
         d="m 5417.74,507.133 h 8.96 c 28.65,0 59.69,4.883 59.69,37.441 0,32.012 -33.43,36.633 -61.18,36.633 h -7.47 z M 5529.66,399.43 h -34.03 l -66.25,86.55 h -11.64 v -86.55 h -28.05 v 204.558 h 34.02 c 20,0 41.48,-0.273 59.4,-9.492 18.79,-10.039 29.54,-29.297 29.54,-48.828 0,-29.305 -21.49,-53.73 -54.02,-57.246 l 71.03,-88.992" /><path
         id="path94"
         style="fill:#231f20;fill-opacity:1;fill-rule:nonzero;stroke:none"
         d="m 4007.83,561.469 c 0,-27.051 -21.93,-48.985 -48.98,-48.985 -27.05,0 -48.99,21.934 -48.99,48.985 0,27.051 21.94,48.984 48.99,48.984 27.05,0 48.98,-21.933 48.98,-48.984" /><path
         id="path96"
         style="fill:#231f20;fill-opacity:1;fill-rule:nonzero;stroke:none"
         d="m 4007.46,272.426 c 0,-27.051 -21.93,-48.985 -48.98,-48.985 -27.05,0 -48.99,21.934 -48.99,48.985 0,27.051 21.94,48.984 48.99,48.984 27.05,0 48.98,-21.933 48.98,-48.984" /><path
         id="path98"
         style="fill:#231f20;fill-opacity:1;fill-rule:nonzero;stroke:none"
         d="m 4007.46,411.898 c 0,-27.05 -21.93,-48.984 -48.98,-48.984 -27.05,0 -48.99,21.934 -48.99,48.984 0,27.051 21.94,48.985 48.99,48.985 27.05,0 48.98,-21.934 48.98,-48.985" /><path
         id="path100"
         style="fill:#231f20;fill-opacity:1;fill-rule:nonzero;stroke:none"
         d="m 4207.85,281.246 v 36.895 h 11.14 v -90.918 h -11.14 v 44.617 h -51.2 v -44.617 h -11.13 v 90.918 h 11.13 v -36.895 h 51.2" /><path
         id="path102"
         style="fill:#231f20;fill-opacity:1;fill-rule:nonzero;stroke:none"
         d="m 4255.07,252.301 c 0,-9.524 1.19,-17.727 14.06,-17.727 12.87,0 14.06,8.203 14.06,17.727 v 31.59 h 10.61 v -32.676 c 0,-15.067 -6.23,-25.567 -24.67,-25.567 -18.44,0 -24.67,10.5 -24.67,25.567 v 32.676 h 10.61 v -31.59" /><path
         id="path104"
         style="fill:#231f20;fill-opacity:1;fill-rule:nonzero;stroke:none"
         d="m 4329.35,277.75 h 0.27 c 3.31,4.695 8.61,7.715 14.98,7.715 7.29,0 13.92,-3.496 17.25,-9.406 3.71,6.269 11.14,9.406 18.7,9.406 15.91,0 19.89,-11.817 19.89,-23.762 v -34.48 h -10.61 v 32.918 c 0,7.355 -0.52,16.398 -11.4,16.398 -12.21,0 -13.54,-10.734 -13.54,-19.289 v -30.027 h -10.6 v 32.195 c 0,6.992 -0.94,17.121 -11.15,17.121 -12.47,0 -13.79,-11.457 -13.79,-20.019 v -29.297 h -10.61 v 56.668 h 10.61 v -6.141" /><path
         id="path106"
         style="fill:#231f20;fill-opacity:1;fill-rule:nonzero;stroke:none"
         d="m 4431.74,256.156 c 0,-11.093 7.16,-21.582 20.43,-21.582 13.66,0 20.82,10.012 20.82,21.465 0,11.34 -7.82,20.5 -20.96,20.5 -12.33,0 -20.29,-9.766 -20.29,-20.383 z m 51.34,-28.933 h -10.62 v 7.84 h -0.26 c -5.44,-6.27 -12.74,-9.415 -21.49,-9.415 -18.31,0 -29.84,14.114 -29.84,29.786 0,16.164 11.27,30.031 29.97,30.031 8.49,0 16.18,-3.625 21.36,-9.649 h 0.26 v 8.075 h 10.62 v -56.668" /><path
         id="path108"
         style="fill:#231f20;fill-opacity:1;fill-rule:nonzero;stroke:none"
         d="m 4518.89,277.016 h 0.26 c 4.37,5.429 10.08,8.449 17.77,8.449 17.25,0 21.22,-11.34 21.22,-24.602 v -33.64 h -10.61 v 31.953 c 0,9.16 -0.79,17.363 -13.13,17.363 -14.59,0 -15.51,-12.297 -15.51,-22.434 v -26.882 h -10.62 v 56.668 h 10.62 v -6.875" /><path
         id="path110"
         style="fill:#231f20;fill-opacity:1;fill-rule:nonzero;stroke:none"
         d="m 4641.71,227.223 h -11.14 v 90.918 h 11.14 v -90.918" /><path
         id="path112"
         style="fill:#231f20;fill-opacity:1;fill-rule:nonzero;stroke:none"
         d="m 4678.18,277.75 h 0.27 c 3.32,4.695 8.62,7.715 14.98,7.715 7.3,0 13.93,-3.496 17.24,-9.406 3.71,6.269 11.16,9.406 18.71,9.406 15.92,0 19.9,-11.817 19.9,-23.762 v -34.48 h -10.62 v 32.918 c 0,7.355 -0.53,16.398 -11.4,16.398 -12.21,0 -13.53,-10.734 -13.53,-19.289 v -30.027 h -10.62 v 32.195 c 0,6.992 -0.92,17.121 -11.13,17.121 -12.48,0 -13.8,-11.457 -13.8,-20.019 v -29.297 h -10.61 v 56.668 h 10.61 v -6.141" /><path
         id="path114"
         style="fill:#231f20;fill-opacity:1;fill-rule:nonzero;stroke:none"
         d="m 4784.56,256.156 c 0,-11.093 7.16,-21.582 20.43,-21.582 13.65,0 20.82,10.012 20.82,21.465 0,11.34 -7.83,20.5 -20.96,20.5 -12.34,0 -20.29,-9.766 -20.29,-20.383 z m 0.53,19.66 h 0.26 c 5.18,6.27 12.86,9.649 21.5,9.649 18.3,0 29.84,-14.356 29.84,-30.031 0,-16.153 -11.28,-29.786 -29.98,-29.786 -8.5,0 -16.31,3.379 -21.36,9.532 h -0.26 v -39.793 h -10.61 v 88.504 h 10.61 v -8.075" /><path
         id="path116"
         style="fill:#231f20;fill-opacity:1;fill-rule:nonzero;stroke:none"
         d="m 4862.69,256.156 c 0,-11.093 7.15,-21.582 20.42,-21.582 13.66,0 20.83,10.012 20.83,21.465 0,11.34 -7.84,20.5 -20.96,20.5 -12.35,0 -20.29,-9.766 -20.29,-20.383 z m 51.32,-28.933 h -10.6 v 7.84 h -0.28 c -5.43,-6.27 -12.73,-9.415 -21.48,-9.415 -18.3,0 -29.84,14.114 -29.84,29.786 0,16.164 11.27,30.031 29.98,30.031 8.47,0 16.17,-3.625 21.34,-9.649 h 0.28 v 8.075 h 10.6 v -56.668" /><path
         id="path118"
         style="fill:#231f20;fill-opacity:1;fill-rule:nonzero;stroke:none"
         d="m 4985.5,267.016 h -0.27 c -4.91,5.664 -11,9.523 -19.36,9.523 -12.86,0 -22.01,-9.648 -22.01,-20.976 0,-11.223 8.48,-20.989 21.48,-20.989 8.89,0 15.12,3.625 20.29,9.766 h 0.27 v -12.899 c -6.11,-3.742 -12.34,-5.793 -19.76,-5.793 -18.85,0 -33.16,12.786 -33.16,29.915 0,16.875 14.98,29.902 33.29,29.902 6.77,0 13.66,-2.051 19.23,-5.676 v -12.773" /><path
         id="path120"
         style="fill:#231f20;fill-opacity:1;fill-rule:nonzero;stroke:none"
         d="m 5019.05,227.223 h -10.6 v 47.754 h -6.51 v 8.914 h 6.51 v 20.382 h 10.6 v -20.382 h 11.15 v -8.914 h -11.15 v -47.754" /><path
         id="path122"
         style="fill:#231f20;fill-opacity:1;fill-rule:nonzero;stroke:none"
         d="m 5127.69,287.27 v -24.473 h 26.93 v -9.414 h -26.93 V 228.91 h -10.35 v 24.473 h -26.92 v 9.414 h 26.92 v 24.473 h 10.35" /><path
         id="path124"
         style="fill:#231f20;fill-opacity:1;fill-rule:nonzero;stroke:none"
         d="m 5236.58,276.422 h 7.43 c 12.34,0 22.82,3.367 22.82,16.394 0,14.836 -13.14,15.918 -26.14,15.918 h -4.11 z m 0,-49.199 h -11.14 v 90.918 h 16.44 c 8.63,0 17.52,-0.246 24.81,-4.825 7.43,-4.699 11.27,-12.656 11.27,-20.742 0,-7.355 -3.31,-14.824 -9.54,-19.531 -6.77,-5.07 -15.38,-6.027 -23.74,-6.027 h -8.1 v -39.793" /><path
         id="path126"
         style="fill:#231f20;fill-opacity:1;fill-rule:nonzero;stroke:none"
         d="m 5307.8,277.75 h 0.28 c 3.71,4.453 6.89,7.715 13.78,7.715 3.59,0 6.51,-1.086 9.56,-2.656 l -5.04,-8.801 c -2.13,1.328 -3.59,2.531 -6.37,2.531 -11.67,0 -12.21,-13.625 -12.21,-20.976 v -28.34 h -10.6 v 56.668 h 10.6 v -6.141" /><path
         id="path128"
         style="fill:#231f20;fill-opacity:1;fill-rule:nonzero;stroke:none"
         d="m 5352.77,255.563 c 0,-11.583 9.02,-20.989 22.15,-20.989 13.14,0 22.16,9.406 22.16,20.989 0,11.453 -9.02,20.976 -22.16,20.976 -13.13,0 -22.15,-9.523 -22.15,-20.976 z m -10.61,-0.129 c 0,16.64 14.45,30.031 32.76,30.031 18.31,0 32.77,-13.391 32.77,-30.031 0,-16.641 -14.59,-29.786 -32.77,-29.786 -18.17,0 -32.76,13.145 -32.76,29.786" /><path
         id="path130"
         style="fill:#231f20;fill-opacity:1;fill-rule:nonzero;stroke:none"
         d="m 5439.38,227.223 h -10.6 v 47.754 h -5.84 v 8.914 h 5.84 v 22.55 c 0,4.707 0,10.614 2.77,14.715 3.46,5.059 9.69,7.11 16.06,7.11 2.52,0 5.04,-0.477 7.56,-1.2 v -9.765 c -2.39,0.722 -4.52,1.316 -7.17,1.316 -8.62,0 -8.62,-5.547 -8.62,-15.547 v -19.179 h 15.79 v -8.914 h -15.79 v -47.754" /><path
         id="path132"
         style="fill:#231f20;fill-opacity:1;fill-rule:nonzero;stroke:none"
         d="m 5482.35,227.223 h -10.6 v 56.668 h 10.6 z m 2.27,78.015 c 0,-3.855 -3.46,-6.875 -7.57,-6.875 -4.11,0 -7.56,3.02 -7.56,6.875 0,3.742 3.45,6.875 7.56,6.875 4.11,0 7.57,-3.133 7.57,-6.875" /><path
         id="path134"
         style="fill:#231f20;fill-opacity:1;fill-rule:nonzero;stroke:none"
         d="m 5521.22,227.223 h -10.61 v 47.754 h -6.5 v 8.914 h 6.5 v 20.382 h 10.61 v -20.382 h 11.13 v -8.914 h -11.13 v -47.754" /><path
         id="path136"
         style="fill:#231f20;fill-opacity:1;fill-rule:nonzero;stroke:none"
         d="m 3254.08,452.328 v 156.231 h 53.15 v -387.5 h -53.15 V 407.094 H 3051.13 V 221.059 h -53.12 v 387.5 h 53.12 V 452.328 h 202.95" /><path
         id="path138"
         style="fill:#231f20;fill-opacity:1;fill-rule:nonzero;stroke:none"
         d="m 3449.68,221.059 h -53.15 v 387.5 h 53.15 v -387.5" /><path
         id="path140"
         style="fill:#231f20;fill-opacity:1;fill-rule:nonzero;stroke:none"
         d="m 3596.67,426.625 h 16.94 c 54.26,0 113.07,9.258 113.07,70.938 0,60.625 -63.32,67.832 -115.91,67.832 h -14.1 z m 0,-205.566 h -53.15 v 387.5 h 61.04 c 131.14,0 171.86,-41.094 171.86,-112.032 0,-81.718 -68.39,-113.066 -149.25,-113.066 h -30.5 V 221.059" /><g
         transform="scale(10)"
         id="g142"><text
           id="text146"
           style="font-variant:normal;font-weight:300;font-size:8px;font-family:GillSans;-inkscape-font-specification:GillSans-Light;writing-mode:lr-tb;fill:#231f20;fill-opacity:1;fill-rule:nonzero;stroke:none"
           transform="matrix(1,0,0,-1,311.183,2.94141)"><tspan
             id="tspan144"
             y="0"
             x="0 4.0799999 10.328 14.08 16.304001 20.304001 24.304001 28.304001 32.304001 37.720001 42.167999 44.416 46.664001 51.112 55.192001 61.439999 65.192001 67.416 71.416 75.416 79.416 84.832001 89.279999 91.528 93.776001 98.223999 102.304 108.552 112.304 114.528 118.528 122.528 126.528 130.528">PMS 5747C // PMS 444C // PMS 5767C</tspan></text>
</g><g
         transform="scale(10)"
         id="g148"><text
           id="text152"
           style="font-variant:normal;font-weight:300;font-size:5px;font-family:GillSans;-inkscape-font-specification:GillSans-Light;writing-mode:lr-tb;fill:#334005;fill-opacity:1;fill-rule:nonzero;stroke:none"
           transform="matrix(1,0,0,-1,64.7418,32.6699)"><tspan
             id="tspan150"
             y="0"
             x="0 2.8662086">TM</tspan></text>
</g><g
         transform="scale(10)"
         id="g154"><text
           id="text158"
           style="font-variant:normal;font-weight:300;font-size:5px;font-family:GillSans;-inkscape-font-specification:GillSans-Light;writing-mode:lr-tb;fill:#231f20;fill-opacity:1;fill-rule:nonzero;stroke:none"
           transform="matrix(1,0,0,-1,363.388,22.1082)"><tspan
             id="tspan156"
             y="0"
             x="0 2.8662207">TM</tspan></text>
</g><path
         id="path160"
         style="fill:#ffffff;fill-opacity:1;fill-rule:nonzero;stroke:none"
         d="m 7342.98,309.43 h -28.06 v 204.558 h 28.06 V 309.43" /><path
         id="path162"
         style="fill:#ffffff;fill-opacity:1;fill-rule:nonzero;stroke:none"
         d="m 7389.82,523.754 168.92,-160.879 v 151.113 h 28.06 V 301.02 L 7417.88,461.898 V 309.43 h -28.06 v 214.324" /><path
         id="path164"
         style="fill:#ffffff;fill-opacity:1;fill-rule:nonzero;stroke:none"
         d="m 7708.55,362.602 66.85,151.386 h 30.74 l -97.59,-215.41 -97.89,215.41 h 30.75 l 67.14,-151.386" /><path
         id="path166"
         style="fill:#ffffff;fill-opacity:1;fill-rule:nonzero;stroke:none"
         d="m 7832.71,513.988 h 120.86 V 490.66 h -92.81 v -57.238 h 90.13 v -23.34 h -90.13 v -77.324 h 92.81 V 309.43 h -120.86 v 204.558" /><path
         id="path168"
         style="fill:#ffffff;fill-opacity:1;fill-rule:nonzero;stroke:none"
         d="m 8095.63,475.199 c -8.36,12.754 -19.11,19.258 -36.12,19.258 -17.9,0 -37.6,-11.121 -37.6,-29.023 0,-16.016 17.31,-24.422 31.33,-29.305 l 16.12,-5.695 c 31.94,-11.395 55.81,-27.403 55.81,-61.59 0,-37.168 -31.64,-63.762 -71.93,-63.762 -36.4,0 -64.75,24.426 -69.53,57.246 l 28.35,5.43 c -0.29,-22.52 19.4,-38.789 43.57,-38.789 24.17,0 41.49,18.437 41.49,39.875 0,21.98 -19.41,31.472 -38.8,38.797 l -15.52,5.968 c -25.66,10.039 -48.94,23.329 -48.94,51.825 0,33.097 32.22,52.902 66.25,52.902 25.07,0 45.66,-11.125 57.9,-30.93 l -22.38,-12.207" /><path
         id="path170"
         style="fill:#ffffff;fill-opacity:1;fill-rule:nonzero;stroke:none"
         d="m 8223.94,309.43 h -28.05 v 181.23 h -53.42 v 23.328 h 134.89 V 490.66 h -53.42 V 309.43" /><path
         id="path172"
         style="fill:#ffffff;fill-opacity:1;fill-rule:nonzero;stroke:none"
         d="m 8498.8,411.703 c 0,45.039 -37,82.754 -89.83,82.754 -52.82,0 -89.83,-37.715 -89.83,-82.754 0,-46.66 41.19,-82.734 89.83,-82.734 48.65,0 89.83,36.074 89.83,82.734 z m 28.06,0 c 0,-60.762 -52.83,-106.621 -117.89,-106.621 -65.05,0 -117.88,45.859 -117.88,106.621 0,58.613 53.42,106.633 117.88,106.633 64.47,0 117.89,-48.02 117.89,-106.633" /><path
         id="path174"
         style="fill:#ffffff;fill-opacity:1;fill-rule:nonzero;stroke:none"
         d="m 8589.53,417.133 h 8.96 c 28.65,0 59.68,4.883 59.68,37.441 0,32.012 -33.42,36.633 -61.18,36.633 h -7.46 z M 8701.44,309.43 h -34.02 l -66.25,86.55 h -11.64 v -86.55 h -28.06 v 204.558 h 34.03 c 20,0 41.48,-0.273 59.39,-9.492 18.8,-10.039 29.54,-29.297 29.54,-48.828 0,-29.305 -21.48,-53.73 -54.01,-57.246 l 71.02,-88.992" /><path
         id="path176"
         style="fill:#ffffff;fill-opacity:1;fill-rule:nonzero;stroke:none"
         d="m 7179.62,471.469 c 0,-27.051 -21.93,-48.985 -48.99,-48.985 -27.05,0 -48.98,21.934 -48.98,48.985 0,27.051 21.93,48.984 48.98,48.984 27.06,0 48.99,-21.933 48.99,-48.984" /><path
         id="path178"
         style="fill:#ffffff;fill-opacity:1;fill-rule:nonzero;stroke:none"
         d="m 7179.25,182.426 c 0,-27.051 -21.93,-48.988 -48.99,-48.988 -27.05,0 -48.98,21.937 -48.98,48.988 0,27.051 21.93,48.984 48.98,48.984 27.06,0 48.99,-21.933 48.99,-48.984" /><path
         id="path180"
         style="fill:#ffffff;fill-opacity:1;fill-rule:nonzero;stroke:none"
         d="m 7179.25,321.898 c 0,-27.05 -21.93,-48.984 -48.99,-48.984 -27.05,0 -48.98,21.934 -48.98,48.984 0,27.051 21.93,48.985 48.98,48.985 27.06,0 48.99,-21.934 48.99,-48.985" /><path
         id="path182"
         style="fill:#ffffff;fill-opacity:1;fill-rule:nonzero;stroke:none"
         d="m 7379.64,191.246 v 36.895 h 11.14 v -90.914 h -11.14 v 44.613 h -51.2 v -44.613 h -11.14 v 90.914 h 11.14 v -36.895 h 51.2" /><path
         id="path184"
         style="fill:#ffffff;fill-opacity:1;fill-rule:nonzero;stroke:none"
         d="m 7426.86,162.301 c 0,-9.524 1.19,-17.731 14.06,-17.731 12.87,0 14.06,8.207 14.06,17.731 v 31.59 h 10.61 v -32.676 c 0,-15.063 -6.23,-25.57 -24.67,-25.57 -18.44,0 -24.67,10.507 -24.67,25.57 v 32.676 h 10.61 v -31.59" /><path
         id="path186"
         style="fill:#ffffff;fill-opacity:1;fill-rule:nonzero;stroke:none"
         d="m 7501.13,187.75 h 0.28 c 3.31,4.695 8.61,7.715 14.98,7.715 7.29,0 13.92,-3.496 17.24,-9.406 3.71,6.269 11.14,9.406 18.7,9.406 15.92,0 19.9,-11.817 19.9,-23.762 v -34.476 h -10.61 v 32.914 c 0,7.355 -0.53,16.398 -11.41,16.398 -12.2,0 -13.53,-10.734 -13.53,-19.289 v -30.023 h -10.61 v 32.191 c 0,6.992 -0.93,17.121 -11.14,17.121 -12.47,0 -13.8,-11.457 -13.8,-20.019 v -29.293 h -10.6 v 56.664 h 10.6 v -6.141" /><path
         id="path188"
         style="fill:#ffffff;fill-opacity:1;fill-rule:nonzero;stroke:none"
         d="m 7603.52,166.156 c 0,-11.093 7.16,-21.586 20.44,-21.586 13.66,0 20.81,10.016 20.81,21.469 0,11.34 -7.82,20.5 -20.95,20.5 -12.34,0 -20.3,-9.766 -20.3,-20.383 z m 51.34,-28.929 h -10.61 v 7.832 h -0.27 c -5.44,-6.27 -12.73,-9.414 -21.48,-9.414 -18.31,0 -29.84,14.117 -29.84,29.789 0,16.164 11.27,30.031 29.97,30.031 8.48,0 16.18,-3.625 21.35,-9.649 h 0.27 v 8.075 h 10.61 v -56.664" /><path
         id="path190"
         style="fill:#ffffff;fill-opacity:1;fill-rule:nonzero;stroke:none"
         d="m 7690.67,187.016 h 0.27 c 4.37,5.429 10.08,8.449 17.77,8.449 17.25,0 21.22,-11.34 21.22,-24.602 v -33.636 h -10.61 v 31.949 c 0,9.16 -0.8,17.363 -13.13,17.363 -14.59,0 -15.52,-12.297 -15.52,-22.434 v -26.878 h -10.61 v 56.664 h 10.61 v -6.875" /><path
         id="path192"
         style="fill:#ffffff;fill-opacity:1;fill-rule:nonzero;stroke:none"
         d="m 7813.5,137.227 h -11.15 v 90.914 h 11.15 v -90.914" /><path
         id="path194"
         style="fill:#ffffff;fill-opacity:1;fill-rule:nonzero;stroke:none"
         d="m 7849.97,187.75 h 0.26 c 3.32,4.695 8.63,7.715 14.98,7.715 7.31,0 13.94,-3.496 17.25,-9.406 3.71,6.269 11.15,9.406 18.71,9.406 15.92,0 19.9,-11.817 19.9,-23.762 v -34.476 h -10.62 v 32.914 c 0,7.355 -0.53,16.398 -11.41,16.398 -12.2,0 -13.52,-10.734 -13.52,-19.289 v -30.023 h -10.62 v 32.191 c 0,6.992 -0.93,17.121 -11.13,17.121 -12.48,0 -13.8,-11.457 -13.8,-20.019 v -29.293 h -10.61 v 56.664 h 10.61 v -6.141" /><path
         id="path196"
         style="fill:#ffffff;fill-opacity:1;fill-rule:nonzero;stroke:none"
         d="m 7956.35,166.156 c 0,-11.093 7.16,-21.586 20.43,-21.586 13.65,0 20.82,10.016 20.82,21.469 0,11.34 -7.83,20.5 -20.96,20.5 -12.34,0 -20.29,-9.766 -20.29,-20.383 z m 0.53,19.66 h 0.26 c 5.18,6.27 12.86,9.649 21.49,9.649 18.3,0 29.85,-14.356 29.85,-30.031 0,-16.153 -11.28,-29.789 -29.98,-29.789 -8.5,0 -16.31,3.378 -21.36,9.531 h -0.26 v -39.785 h -10.61 v 88.5 h 10.61 v -8.075" /><path
         id="path198"
         style="fill:#ffffff;fill-opacity:1;fill-rule:nonzero;stroke:none"
         d="m 8034.47,166.156 c 0,-11.093 7.16,-21.586 20.43,-21.586 13.65,0 20.82,10.016 20.82,21.469 0,11.34 -7.83,20.5 -20.95,20.5 -12.35,0 -20.3,-9.766 -20.3,-20.383 z m 51.33,-28.929 h -10.61 v 7.832 h -0.27 c -5.43,-6.27 -12.73,-9.414 -21.48,-9.414 -18.3,0 -29.85,14.117 -29.85,29.789 0,16.164 11.27,30.031 29.98,30.031 8.48,0 16.18,-3.625 21.35,-9.649 h 0.27 v 8.075 h 10.61 v -56.664" /><path
         id="path200"
         style="fill:#ffffff;fill-opacity:1;fill-rule:nonzero;stroke:none"
         d="m 8157.28,177.016 h -0.26 c -4.91,5.664 -11,9.523 -19.36,9.523 -12.87,0 -22.02,-9.648 -22.02,-20.976 0,-11.223 8.49,-20.993 21.49,-20.993 8.89,0 15.12,3.633 20.29,9.77 h 0.27 v -12.895 c -6.11,-3.75 -12.34,-5.8 -19.76,-5.8 -18.85,0 -33.16,12.793 -33.16,29.918 0,16.875 14.98,29.902 33.29,29.902 6.76,0 13.66,-2.051 19.22,-5.676 v -12.773" /><path
         id="path202"
         style="fill:#ffffff;fill-opacity:1;fill-rule:nonzero;stroke:none"
         d="m 8190.84,137.227 h -10.61 v 47.75 h -6.5 v 8.914 h 6.5 v 20.382 h 10.61 v -20.382 h 11.15 v -8.914 h -11.15 v -47.75" /><path
         id="path204"
         style="fill:#ffffff;fill-opacity:1;fill-rule:nonzero;stroke:none"
         d="m 8299.47,197.27 v -24.473 h 26.94 v -9.414 h -26.94 v -24.477 h -10.34 v 24.477 h -26.92 v 9.414 h 26.92 v 24.473 h 10.34" /><path
         id="path206"
         style="fill:#ffffff;fill-opacity:1;fill-rule:nonzero;stroke:none"
         d="m 8408.37,186.422 h 7.43 c 12.33,0 22.81,3.367 22.81,16.394 0,14.836 -13.13,15.918 -26.13,15.918 h -4.11 z m 0,-49.195 h -11.14 v 90.914 h 16.44 c 8.62,0 17.51,-0.246 24.81,-4.825 7.43,-4.699 11.27,-12.656 11.27,-20.742 0,-7.355 -3.31,-14.824 -9.54,-19.531 -6.77,-5.07 -15.39,-6.027 -23.75,-6.027 h -8.09 v -39.789" /><path
         id="path208"
         style="fill:#ffffff;fill-opacity:1;fill-rule:nonzero;stroke:none"
         d="m 8479.59,187.75 h 0.27 c 3.71,4.453 6.9,7.715 13.79,7.715 3.59,0 6.51,-1.086 9.55,-2.656 l -5.04,-8.801 c -2.13,1.328 -3.58,2.531 -6.36,2.531 -11.67,0 -12.21,-13.625 -12.21,-20.976 v -28.336 h -10.61 v 56.664 h 10.61 v -6.141" /><path
         id="path210"
         style="fill:#ffffff;fill-opacity:1;fill-rule:nonzero;stroke:none"
         d="m 8524.56,165.563 c 0,-11.583 9.01,-20.993 22.15,-20.993 13.13,0 22.16,9.41 22.16,20.993 0,11.453 -9.03,20.976 -22.16,20.976 -13.14,0 -22.15,-9.523 -22.15,-20.976 z m -10.62,-0.129 c 0,16.64 14.46,30.031 32.77,30.031 18.31,0 32.76,-13.391 32.76,-30.031 0,-16.641 -14.59,-29.789 -32.76,-29.789 -18.18,0 -32.77,13.148 -32.77,29.789" /><path
         id="path212"
         style="fill:#ffffff;fill-opacity:1;fill-rule:nonzero;stroke:none"
         d="m 8611.17,137.227 h -10.6 v 47.75 h -5.84 v 8.914 h 5.84 v 22.55 c 0,4.707 0,10.614 2.77,14.715 3.46,5.059 9.69,7.11 16.05,7.11 2.52,0 5.04,-0.477 7.56,-1.2 v -9.765 c -2.38,0.722 -4.51,1.316 -7.17,1.316 -8.61,0 -8.61,-5.547 -8.61,-15.547 v -19.179 h 15.78 v -8.914 h -15.78 v -47.75" /><path
         id="path214"
         style="fill:#ffffff;fill-opacity:1;fill-rule:nonzero;stroke:none"
         d="m 8654.14,137.227 h -10.61 v 56.664 h 10.61 z m 2.27,78.011 c 0,-3.855 -3.46,-6.875 -7.57,-6.875 -4.11,0 -7.56,3.02 -7.56,6.875 0,3.742 3.45,6.875 7.56,6.875 4.11,0 7.57,-3.133 7.57,-6.875" /><path
         id="path216"
         style="fill:#ffffff;fill-opacity:1;fill-rule:nonzero;stroke:none"
         d="m 8693.01,137.227 h -10.62 v 47.75 h -6.49 v 8.914 h 6.49 v 20.382 h 10.62 v -20.382 h 11.13 v -8.914 h -11.13 v -47.75" /><path
         id="path218"
         style="fill:#ffffff;fill-opacity:1;fill-rule:nonzero;stroke:none"
         d="m 6425.87,362.328 v 156.231 h 53.14 V 131.055 h -53.14 V 317.094 H 6222.92 V 131.055 h -53.13 v 387.504 h 53.13 V 362.328 h 202.95" /><path
         id="path220"
         style="fill:#ffffff;fill-opacity:1;fill-rule:nonzero;stroke:none"
         d="m 6621.46,131.055 h -53.14 v 387.504 h 53.14 V 131.055" /><path
         id="path222"
         style="fill:#ffffff;fill-opacity:1;fill-rule:nonzero;stroke:none"
         d="m 6768.46,336.625 h 16.94 c 54.26,0 113.07,9.258 113.07,70.938 0,60.625 -63.32,67.832 -115.91,67.832 h -14.1 z m 0,-205.57 h -53.15 v 387.504 h 61.04 c 131.14,0 171.85,-41.094 171.85,-112.032 0,-81.718 -68.38,-113.066 -149.24,-113.066 h -30.5 V 131.055" /><g
         transform="scale(10)"
         id="g224"><text
           id="text228"
           style="font-variant:normal;font-weight:300;font-size:5px;font-family:GillSans;-inkscape-font-specification:GillSans-Light;writing-mode:lr-tb;fill:#ffffff;fill-opacity:1;fill-rule:nonzero;stroke:none"
           transform="matrix(1,0,0,-1,680.566,13.1086)"><tspan
             id="tspan226"
             y="0"
             x="0 2.8662207">TM</tspan></text>
</g></g></g></svg>